<svg width="116" height="116" viewBox="0 0 116 116" fill="none" xmlns="http://www.w3.org/2000/svg">
<g clip-path="url(#clip0_67_1019)">
<path d="M113.953 56.1875C113.947 51.2398 112.606 46.387 110.073 42.1498C107.541 37.9125 103.913 34.4507 99.5776 32.1356C99.4767 27.3331 97.9229 22.6765 95.1247 18.7897C92.3264 14.9029 88.4172 11.9716 83.9211 10.3887C79.4249 8.80578 74.5565 8.64684 69.9682 9.93316C65.38 11.2195 61.2911 13.8896 58.2495 17.5858C55.2079 13.8896 51.119 11.2195 46.5308 9.93316C41.9425 8.64684 37.0741 8.80578 32.5779 10.3887C28.0818 11.9716 24.1726 14.9029 21.3743 18.7897C18.5761 22.6765 17.0223 27.3331 16.9214 32.1356C12.582 34.4444 8.94959 37.9041 6.41581 42.1417C3.88203 46.3794 2.54297 51.2342 2.54297 56.1829C2.54297 61.1317 3.88203 65.9865 6.41581 70.2242C8.94959 74.4618 12.582 77.9215 16.9214 80.2303C17.0206 85.0335 18.573 89.6915 21.3706 93.5796C24.1682 97.4678 28.0773 100.4 32.5739 101.985C37.0704 103.569 41.9396 103.728 46.5286 102.442C51.1177 101.156 55.2074 98.4859 58.2495 94.7892C61.2916 98.4859 65.3813 101.156 69.9704 102.442C74.5594 103.728 79.4286 103.569 83.9251 101.985C88.4217 100.4 92.3308 97.4678 95.1284 93.5796C97.926 89.6915 99.4784 85.0335 99.5776 80.2303C103.914 77.9194 107.544 74.4598 110.077 70.2235C112.61 65.9872 113.95 61.1346 113.953 56.1875ZM40.2808 92.4375C37.5667 92.4371 34.9256 91.5513 32.7517 89.9122C30.5778 88.2732 28.9879 85.9688 28.2192 83.3432C28.6684 83.3432 29.0683 83.375 29.4995 83.375H33.0933C34.5229 83.375 35.8941 82.8021 36.905 81.7824C37.9159 80.7626 38.4839 79.3796 38.4839 77.9375C38.4839 76.4954 37.9159 75.1123 36.905 74.0926C35.8941 73.0729 34.5229 72.5 33.0933 72.5H29.4995C25.6826 72.5027 21.9878 71.1435 19.0688 68.6629C16.1497 66.1823 14.1945 62.7402 13.5492 58.9456C12.9038 55.151 13.6098 51.2484 15.5424 47.9283C17.4749 44.6082 20.5093 42.0845 24.1089 40.8039C25.1603 40.4289 26.0706 39.7342 26.7142 38.8155C27.3579 37.8969 27.7032 36.7994 27.7026 35.6745V32.625C27.7026 29.26 29.0278 26.0329 31.3867 23.6536C33.7455 21.2742 36.9448 19.9375 40.2808 19.9375C43.6167 19.9375 46.816 21.2742 49.1748 23.6536C51.5337 26.0329 52.8589 29.26 52.8589 32.625V59.894C51.8281 59.2273 50.7466 58.6439 49.6245 58.1495C48.314 57.5727 46.8299 57.5446 45.4989 58.0714C44.1678 58.5983 43.0987 59.6369 42.5268 60.9589C41.955 62.2808 41.9271 63.7778 42.4495 65.1204C42.9718 66.4631 44.0015 67.5414 45.312 68.1183C47.9625 69.2829 50.1344 71.3331 51.462 73.9237C52.7897 76.5142 53.192 79.4871 52.6014 82.3418C52.0108 85.1965 50.4633 87.7589 48.2193 89.5977C45.9753 91.4364 43.1719 92.4393 40.2808 92.4375ZM86.9995 72.5H83.4058C81.9761 72.5 80.6049 73.0729 79.594 74.0926C78.5831 75.1123 78.0151 76.4954 78.0151 77.9375C78.0151 79.3796 78.5831 80.7626 79.594 81.7824C80.6049 82.8021 81.9761 83.375 83.4058 83.375H86.9995C87.4487 83.375 87.853 83.375 88.2798 83.3432C87.681 85.3903 86.5799 87.252 85.0785 88.7559C83.5771 90.2598 81.7238 91.3573 79.6902 91.9468C77.6565 92.5364 75.5084 92.5989 73.4444 92.1287C71.3805 91.6584 69.4675 90.6705 67.8826 89.2565C66.2976 87.8425 65.092 86.048 64.3771 84.0392C63.6623 82.0303 63.4615 79.872 63.7931 77.7641C64.1248 75.6561 64.9784 73.6667 66.2747 71.9798C67.5711 70.2929 69.2684 68.9632 71.2095 68.1137C72.52 67.5369 73.5497 66.4585 74.072 65.1159C74.5943 63.7732 74.5665 62.2763 73.9946 60.9543C73.4227 59.6324 72.3537 58.5938 71.0226 58.0669C69.6915 57.54 68.2075 57.5681 66.897 58.145C65.7748 58.6394 64.6933 59.2227 63.6626 59.8895V32.625C63.6626 29.26 64.9878 26.0329 67.3466 23.6536C69.7055 21.2742 72.9048 19.9375 76.2407 19.9375C79.5766 19.9375 82.7759 21.2742 85.1348 23.6536C87.4936 26.0329 88.8188 29.26 88.8188 32.625V35.6745C88.8183 36.7994 89.1636 37.8969 89.8072 38.8155C90.4509 39.7342 91.3611 40.4289 92.4126 40.8039C96.0283 42.073 99.0804 44.5947 101.026 47.9205C102.971 51.2463 103.684 55.1604 103.037 58.9665C102.39 62.7726 100.426 66.2238 97.4933 68.7061C94.5607 71.1884 90.8502 72.5408 87.022 72.5226L86.9995 72.5ZM94.187 52.5625C94.187 54.0046 93.6191 55.3876 92.6081 56.4074C91.5972 57.4271 90.2261 58 88.7964 58C84.0308 58 79.4603 56.0904 76.0906 52.6913C72.7208 49.2922 70.8276 44.682 70.8276 39.875V38.0625C70.8276 36.6204 71.3956 35.2373 72.4065 34.2176C73.4174 33.1978 74.7886 32.625 76.2183 32.625C77.6479 32.625 79.0191 33.1978 80.03 34.2176C81.0409 35.2373 81.6089 36.6204 81.6089 38.0625V39.875C81.6089 41.7978 82.3661 43.6419 83.714 45.0015C85.062 46.3611 86.8901 47.125 88.7964 47.125C90.2261 47.125 91.5972 47.6978 92.6081 48.7176C93.6191 49.7373 94.187 51.1204 94.187 52.5625ZM45.6714 39.875C45.6714 44.682 43.7782 49.2922 40.4085 52.6913C37.0387 56.0904 32.4682 58 27.7026 58C26.2729 58 24.9018 57.4271 23.8909 56.4074C22.8799 55.3876 22.312 54.0046 22.312 52.5625C22.312 51.1204 22.8799 49.7373 23.8909 48.7176C24.9018 47.6978 26.2729 47.125 27.7026 47.125C29.6089 47.125 31.437 46.3611 32.785 45.0015C34.1329 43.6419 34.8901 41.7978 34.8901 39.875V38.0625C34.8901 36.6204 35.4581 35.2373 36.469 34.2176C37.4799 33.1978 38.8511 32.625 40.2808 32.625C41.7104 32.625 43.0816 33.1978 44.0925 34.2176C45.1034 35.2373 45.6714 36.6204 45.6714 38.0625V39.875Z" fill="white"/>
</g>
<defs>
<clipPath id="clip0_67_1019">
<rect width="115" height="116" fill="white" transform="translate(0.75)"/>
</clipPath>
</defs>
</svg>
