<svg width="106" height="105" viewBox="0 0 106 105" fill="none" xmlns="http://www.w3.org/2000/svg">
<g clip-path="url(#clip0_67_1020)">
<path d="M87.3038 70H34.8037C30.735 70 28.7006 70 27.0294 70.4462C24.8039 71.043 22.7747 72.2152 21.1458 73.8448C19.5169 75.4745 18.3457 77.5042 17.75 79.73" stroke="white" stroke-width="7.5"/>
<path d="M35.25 30.625H70.25M35.25 45.9375H57.125M85.5625 83.125H35.25M44 96.25C31.6275 96.25 25.4369 96.25 21.5956 92.4044C17.75 88.5631 17.75 82.3725 17.75 70V35C17.75 22.6275 17.75 16.4369 21.5956 12.5956C25.4369 8.75 31.6275 8.75 44 8.75H61.5C73.8725 8.75 80.0631 8.75 83.9044 12.5956C87.75 16.4369 87.75 22.6275 87.75 35M61.5 96.25C73.8725 96.25 80.0631 96.25 83.9044 92.4044C87.75 88.5631 87.75 82.3725 87.75 70V52.5" stroke="white" stroke-width="7.5" stroke-linecap="round"/>
</g>
<defs>
<clipPath id="clip0_67_1020">
<rect width="105" height="105" fill="white" transform="translate(0.25)"/>
</clipPath>
</defs>
</svg>
